<svg viewBox="0 0 48 48" xmlns="http://www.w3.org/2000/svg" xml:space="preserve" fill-rule="evenodd" clip-rule="evenodd" stroke-linejoin="round" stroke-miterlimit="2" class="size-14 text-white"><g fill="none" stroke="currentColor" stroke-width="1.1" stroke-linejoin="miter" stroke-miterlimit="4"><path d="M6.567 38.134c-.118-.989.276-2.12 1.143-2.987 1.353-1.352 3.345-1.555 4.447-.453 1.102 1.102.899 3.094-.453 4.447-.854.853-1.962 1.248-2.94 1.148M12.191 34.63l22.324-22.323M33.891 11.642l1.526 1.579s1.221-1.447 2.003-1.957c1.117-.729 3.746-1.668 4.29-2.354.259-.328.318-1.003-.034-1.385-.273-.296-.786-.402-1.107-.358-1.031.138-3.506 1.765-4.639 2.514-.786.521-2.039 1.961-2.039 1.961Z"></path><path d="M36.153 12.405s2.744-.541 6.178.816"></path></g></svg>