<svg clip-rule="evenodd" fill-rule="evenodd" stroke-linecap="round" stroke-miterlimit="10" viewBox="0 0 48 48" xmlns="http://www.w3.org/2000/svg" class="size-12 mr-4 text-gray-600"><path d="m-68-1720h1177v3080h-1177z" fill="none"></path><path d="m27.679 40.235c0-.129-.051-.252-.141-.342-.091-.091-.214-.142-.343-.142h-6.571c-.267 0-.484.217-.484.484 0 .41.104.801.296 1.16.559 1.041 1.894 1.805 3.473 1.805 2.114 0 3.77-1.369 3.77-2.965z" fill="currentColor"></path><g fill="none" stroke="currentColor" stroke-width="1.6"><path d="m24.068 10.333c-4.751 0-8.602 3.852-8.602 8.603"></path><path d="m20.256 35.837 7.307-.535" stroke-miterlimit="1.41421"></path><path d="m20.256 38.046 7.307-.536" stroke-miterlimit="1.41421"></path><path d="m23.911 7.18c-6.568 0-11.911 5.398-11.911 12.029 0 5.041 3.377 8.503 6.182 10.52.697.501 1.737 1.688 1.737 3.035v.018c0 .383.309.557.715.557h6.53c.431 0 .696-.197.696-.633 0 0 .004-.034.004-.041.216-1.353 1.074-2.472 1.773-2.976 2.768-1.99 6.064-5.366 6.153-10.296.017-.065.029-.123.029-.194 0-6.63-5.34-12.019-11.908-12.019" stroke-linecap="butt" stroke-linejoin="bevel" stroke-miterlimit="1.41421"></path></g></svg>