<svg viewBox="0 0 48 48" xmlns="http://www.w3.org/2000/svg" fill-rule="evenodd" clip-rule="evenodd" stroke-linejoin="round" stroke-miterlimit="2" class="size-14 text-white"><path fill="none" d="M-68-4372h1177v5753.79H-68z"></path><path fill="currentColor" d="M31.855 19.744c-.057 0-.078-.041-.105-.068-.836-.832-1.671-1.666-2.509-2.497-.073-.073-.079-.118-.002-.194.838-.83 1.674-1.663 2.506-2.499.079-.079.121-.066.192.005.829.831 1.66 1.659 2.492 2.486.064.064.104.108.017.193-.843.835-1.682 1.674-2.523 2.512-.023.023-.049.044-.068.062zM16.102 19.744c-.034-.03-.064-.055-.09-.082-.817-.83-1.633-1.661-2.452-2.49-.072-.072-.077-.117-.002-.193.819-.828 1.636-1.659 2.45-2.492.075-.077.116-.07.187.003.81.828 1.621 1.654 2.437 2.477.084.085.067.129-.008.205-.806.821-1.61 1.646-2.415 2.469-.031.033-.066.063-.107.103zM34.496 34.432c-.035.038-.06.067-.088.094-.828.813-1.657 1.625-2.482 2.441-.085.083-.13.071-.207-.006-.821-.81-1.644-1.619-2.471-2.423-.094-.091-.078-.136.006-.217a558.17 558.17 0 002.456-2.41c.08-.079.125-.105.221-.01.819.812 1.644 1.618 2.468 2.427.032.031.061.066.097.104zM16.096 31.84c.038.035.068.061.095.089.813.828 1.624 1.657 2.44 2.482.084.085.069.13-.006.207-.811.82-1.62 1.643-2.424 2.471-.091.094-.136.076-.217-.007a508.086 508.086 0 00-2.41-2.457c-.081-.081-.102-.127-.008-.221.812-.819 1.618-1.644 2.426-2.467.032-.033.066-.062.104-.097zM38.4 29.32c-.866.87-1.725 1.732-2.581 2.596-.067.068-.106.071-.175.001a660.128 660.128 0 00-2.505-2.515c-.07-.069-.066-.102.001-.17.836-.836 1.67-1.677 2.503-2.516.048-.048.077-.097.153-.02.864.875 1.731 1.746 2.604 2.624zM31.795 23.072c.029.027.063.058.095.091.804.82 1.606 1.643 2.413 2.46.088.089.085.136-.001.223-.811.822-1.619 1.648-2.425 2.477-.079.081-.122.082-.202 0a471.234 471.234 0 00-2.425-2.477c-.085-.086-.09-.133-.002-.223.812-.822 1.619-1.649 2.428-2.474.031-.032.055-.077.119-.077zM16.098 28.384c-.037-.034-.067-.059-.094-.087-.813-.828-1.625-1.657-2.441-2.482-.081-.083-.077-.128.002-.208a470.7 470.7 0 002.425-2.47c.089-.092.136-.083.219.003.801.822 1.604 1.641 2.412 2.455.097.098.083.148-.005.237-.807.816-1.609 1.636-2.413 2.454-.032.032-.066.062-.105.098zM12.262 26.656c.87.866 1.731 1.726 2.596 2.583.077.076.068.118-.004.189-.832.823-1.663 1.648-2.49 2.475-.076.076-.12.094-.205.008a588.087 588.087 0 00-2.505-2.49c-.064-.064-.078-.096-.005-.169.871-.86 1.737-1.725 2.613-2.596zM35.744 35.488c.034.03.066.055.094.083.836.832 1.671 1.664 2.508 2.494.066.065.076.106.005.176-.843.834-1.683 1.671-2.521 2.509-.071.071-.111.063-.177-.003a842.764 842.764 0 00-2.507-2.495c-.07-.069-.083-.113-.004-.191a982.5 982.5 0 002.508-2.493c.028-.028.06-.052.094-.08zM14.912 38.138c-.025.033-.046.066-.073.093-.837.84-1.675 1.679-2.51 2.521-.074.075-.114.055-.176-.008a842.326 842.326 0 00-2.498-2.504c-.073-.074-.074-.118.001-.192.835-.833 1.666-1.668 2.497-2.504.063-.063.102-.082.176-.008.835.843 1.673 1.681 2.51 2.521.023.024.045.05.073.081zM38.272 20.588c0 .065-.044.09-.075.121-.808.811-1.618 1.62-2.424 2.433-.082.083-.129.073-.205-.004a458.035 458.035 0 00-2.413-2.416c-.096-.096-.084-.148.005-.236.803-.798 1.603-1.599 2.398-2.403.094-.095.144-.084.231.004.797.804 1.597 1.604 2.397 2.405.032.032.061.067.086.096zM12.195 18.016c.036.032.067.058.095.086.81.825 1.619 1.653 2.433 2.474.093.094.072.144-.009.226-.808.818-1.613 1.639-2.417 2.462-.076.078-.122.09-.205.005a567.384 567.384 0 00-2.43-2.476c-.078-.079-.086-.128-.004-.211.818-.828 1.632-1.659 2.447-2.489.027-.028.059-.05.09-.077zM20.129 33.44c-.031-.028-.062-.051-.088-.078-.816-.812-1.631-1.625-2.449-2.434-.071-.071-.077-.11-.002-.184.818-.809 1.634-1.621 2.446-2.436.078-.077.117-.062.185.006.809.809 1.62 1.616 2.432 2.422.059.059.107.096.018.184-.825.812-1.643 1.63-2.464 2.447-.023.023-.048.045-.078.073zM30.464 30.847c-.029.032-.055.062-.082.09-.813.817-1.626 1.632-2.435 2.451-.078.079-.117.06-.184-.007a555.786 555.786 0 00-2.423-2.434c-.079-.079-.081-.119-.001-.199.811-.809 1.619-1.62 2.423-2.435.084-.085.124-.068.198.007.8.809 1.604 1.615 2.407 2.422.032.033.063.068.097.105zM27.869 19.488c.032.027.062.051.089.077.815.809 1.629 1.618 2.447 2.424.082.081.076.13-.003.208-.818.806-1.632 1.614-2.445 2.425-.071.071-.107.063-.173-.003-.813-.81-1.627-1.619-2.445-2.425-.083-.082-.075-.13.004-.208.817-.806 1.631-1.615 2.446-2.424.023-.023.048-.045.08-.074zM20.123 24.8c-.035-.034-.065-.06-.093-.088-.81-.803-1.619-1.608-2.431-2.409-.078-.077-.088-.126-.004-.208.817-.806 1.631-1.615 2.443-2.425.065-.064.1-.078.173-.005a565.01 565.01 0 002.457 2.439c.08.079.06.125-.009.194-.816.806-1.63 1.615-2.445 2.423-.027.027-.058.051-.091.079zM26.624 27.268c-.035.037-.062.067-.09.095-.799.806-1.6 1.612-2.396 2.421-.092.094-.145.098-.239.002-.796-.81-1.596-1.616-2.399-2.42-.079-.08-.081-.122 0-.203.802-.803 1.602-1.61 2.398-2.42.092-.093.144-.096.238-.001.796.81 1.597 1.615 2.396 2.422.032.032.059.067.092.104zM26.624 18.619c-.029.033-.052.064-.079.091-.809.816-1.619 1.63-2.425 2.448-.084.085-.132.072-.209-.006a461.084 461.084 0 00-2.414-2.431c-.084-.084-.07-.127.006-.203a390.5 390.5 0 002.398-2.418c.098-.1.151-.083.238.006.793.804 1.589 1.604 2.383 2.405.033.033.064.068.102.108zM27.871 15.968c-.033-.029-.063-.054-.091-.081-.81-.804-1.619-1.609-2.432-2.411-.085-.083-.095-.134-.004-.223.813-.801 1.622-1.606 2.43-2.412.071-.07.112-.08.189-.003.812.811 1.627 1.62 2.444 2.426.072.072.079.119.003.195-.822.811-1.641 1.625-2.461 2.438-.023.024-.049.045-.078.071zM20.132 15.968c-.032-.027-.062-.05-.089-.076-.815-.808-1.629-1.618-2.446-2.424-.081-.079-.082-.128 0-.208.817-.806 1.631-1.615 2.444-2.425.068-.068.106-.068.174 0 .813.811 1.627 1.619 2.445 2.425.081.081.079.129-.001.209-.818.806-1.631 1.615-2.446 2.423-.024.024-.049.046-.081.076zM24.012 7.2c.067 0 .093.044.125.076.81.808 1.617 1.619 2.429 2.424.086.085.07.127-.006.202-.807.802-1.612 1.606-2.412 2.414-.097.099-.149.084-.238-.005a542.381 542.381 0 00-2.397-2.4c-.078-.077-.11-.12-.012-.216.809-.8 1.611-1.606 2.415-2.41.032-.033.069-.061.096-.085z"></path></svg>