<svg clip-rule="evenodd" fill-rule="evenodd" stroke-miterlimit="10" viewBox="0 0 48 48" xmlns="http://www.w3.org/2000/svg" class="size-14 text-white"><g fill="none"><path d="m-68-292h1177v3080h-1177z"></path><g stroke="currentColor" stroke-width="1.1"><path d="m16.333 4.8s-2.555 3.586-2.291 6.873c.264 3.286.764 4.581.764 4.581l7.003.097s.041-1.299 1.825-3.151"></path><path d="m21.678 16.254s-2.967 7.365-3.416 7.637c0 0-1.275 1.79-2.693 2.291 0 0-4.785 8.897-4.966 10.69-.181 1.794 2.714 4.556 3.613 4.993.26.236.176.584.171.824-.006.392-.54.4-1.109.493-1.732.04-3.14.027-4.255-.201-1.115-.227-4.145-2.291-4.145-2.291s.19-1.747 1.528-3.054c1.391-1.243 1.312-4.396 1.527-5.55.244-1.311 1.607-4.123 2.291-5.141.683-1.018 2.325-2.939 2.7-4.582.375-1.642 1.882-6.109 1.882-6.109"></path><path d="m10.987 38.4s-3.263.538-4.581-.764"></path><path d="m36.995 36.651c-.473 1.354-2.128 2.948-3.862 2.512"></path><path d="m21.678 17.018 4.582 7.636s.653 1.204.764 2.291c.11 1.088 1.504 4.797 3.818 7.636 2.314 2.84 2.291 3.819 2.291 3.819l-.316 2.29s.527 2.66 1.843 2.484 7.949-3.54 8.4-4.774c.45-1.234-1.684-1.834-2.291-1.528-.608.306-4.442.162-5.346-.763-.903-.926-3.818-9.927-3.818-9.927s-.014-3.662-.763-4.582c-.749-.921-2.291-7.636-2.291-7.636"></path><path d="m26.745 6.435s-.528.94 0 2.291c.418 1.067 1.806 5.238 1.806 5.238l-6.109 1.527"></path><path d="m15.185 7.091s7.729 1.492 11.36 1.446"></path></g></g></svg>