<svg viewBox="0 0 48 48" xmlns="http://www.w3.org/2000/svg" xml:space="preserve" fill-rule="evenodd" clip-rule="evenodd" stroke-linejoin="round" stroke-miterlimit="2" class="size-14 text-white"><path fill="none" d="M-204-6752H973V461.35H-204z"></path><g fill="none" stroke="currentColor" stroke-width="1.1" stroke-miterlimit="3"><circle cx="24.009" cy="15.951" r="5"></circle><path d="M27.295 19.746c5.25 2.444 5.572 7.148 5.572 7.148l-.071 4.291c-2.699 1.8-5.858 3.162-8.787 3.162-2.93 0-6.089-1.362-8.788-3.162l-.071-4.291s.291-4.707 5.542-7.151"></path><circle cx="35.985" cy="18.427" r="3.649"></circle><path d="M38.383 21.196c3.832 1.784 4.067 5.217 4.067 5.217l-.052 3.132c-1.97 1.313-4.275 2.308-6.413 2.308-1.019 0-2.077-.226-3.118-.605M31.211 22.872c.571-.613 1.334-1.204 2.353-1.678"></path><g><circle cx="12.015" cy="18.427" r="3.649"></circle><path d="M14.413 21.196c1.038.484 1.812 1.088 2.389 1.712M15.15 31.242c-1.047.382-2.11.611-3.135.611-2.138 0-4.443-.995-6.413-2.308l-.052-3.132s.212-3.435 4.044-5.219"></path></g></g></svg>