<svg clip-rule="evenodd" fill-rule="evenodd" stroke-linejoin="round" stroke-miterlimit="2" viewBox="0 0 48 48" xmlns="http://www.w3.org/2000/svg" class="size-14 text-white"><path d="m-68-904h1177v3080h-1177z" fill="none"></path><path d="m12.438 24.077 1-9.562 7.347-3.911s2.365-1.163 4.346-.435c1.982.728 2.975 3.149 3.068 3.477s1.279 4.346 1.279 4.346l6.084 4.346-.869.87-6.55-2.722-2.142-1.624-1.526 4.344 4.371 6.187 2.771 12.073 1.949 1.149-6.488.006-2.698-9.779-2.725-3.55-2.222 6.263-3.589 5.911 1.464 1.734-4.346-1.734.869-1.308 2.139-6.574 1.338-8.638s-.911-4.111 0-6.084c.911-1.974 1.664-3.451 1.664-3.451l-3.399 1.089-1.565 7.128-1.57.449z" fill="none" stroke="currentColor" stroke-width="1.1"></path><path d="m23.526 14.515-2.507 9.527 5.416 7.423 2.608 8.693" fill="none" stroke="currentColor"></path><g fill="currentColor"><circle cx="23.526" cy="14.588" r="1.738"></circle><circle cx="21.157" cy="24.079" r="1.738"></circle><circle cx="26.435" cy="31.465" r="1.304"></circle><circle cx="29.043" cy="40.158" r="1.304"></circle></g><circle cx="26.87" cy="5.823" fill="none" r="2.173" stroke="currentColor" stroke-width="1.1"></circle></svg>