<svg viewBox="0 0 49 49" xmlns="http://www.w3.org/2000/svg" xml:space="preserve" fill-rule="evenodd" clip-rule="evenodd" stroke-linecap="round" stroke-linejoin="round" stroke-miterlimit="1" class="size-14 text-white"><path fill="none" d="M.41.48h48v48h-48z"></path><g fill="none" stroke="currentColor" stroke-width="1.1"><path d="m43.41 23.83-4 1.6-4.26-10.75 4.01-1.58M9.8 12.98l4 1.65L9.37 25.3 5.4 23.65m30.03-7.95s-2 1.05-3.08.98c-2-.13-7.55-2.3-9.56-.45a116.4 116.4 0 0 1-5.26 4.44c-.19.14-.65.44-.54.8.3.87 2.54 2.07 4.52.48 2.53-2.04 2.25-1.7 2.25-1.7a7.75 7.75 0 0 0 6.97 2.73l5.4 3.93c.7 1.65-.38 3.28-2.25 2.64l-3.03-2.32"></path><path d="M33.23 29.24c.62 1.88-.87 3.02-2.48 2.28l-2.3-1.83m1.8 1.51c1 1.57-.52 3.11-2.1 2.47l-2.12-1.63m1.36 1.22c.57 1.17-.3 3.12-2.06 2.42a3.5 3.5 0 0 1-1.56-1.1M13.54 15.35l2.15 1c2.3-.05 4.41.13 6.02.56M9.63 24.74l4.02 2.73m3.32-1.69c.64.52.74 1.45.23 2.1l-1.45 1.8a1.49 1.49 0 0 1-2.31-1.87l1.44-1.8a1.49 1.49 0 0 1 2.1-.23Zm2.32 1.93c.65.52.75 1.47.23 2.12l-1.45 1.8a1.5 1.5 0 0 1-2.34-1.9l1.44-1.79a1.5 1.5 0 0 1 2.12-.23Z"></path><path d="M21.57 29.68c.65.52.75 1.47.23 2.12l-1.4 1.75a1.51 1.51 0 0 1-2.36-1.9l1.4-1.74a1.51 1.51 0 0 1 2.13-.23Zm2.23 1.98c.63.5.72 1.41.22 2.03l-1.4 1.75a1.45 1.45 0 0 1-2.25-1.82l1.4-1.74c.5-.62 1.41-.72 2.03-.22Zm15.19-7.14-2.88 2.3"></path></g></svg>