<svg viewBox="0 0 48 48" xmlns="http://www.w3.org/2000/svg" xml:space="preserve" fill-rule="evenodd" clip-rule="evenodd" stroke-linejoin="round" stroke-miterlimit="2" class="size-14 text-white"><path d="M-136-6276h1177V937.35H-136z" fill="none"></path><path d="M37.87 24.79c0-.74-.6-1.34-1.33-1.34H11.45c-.73 0-1.33.6-1.33 1.34v16.05c0 .74.6 1.34 1.33 1.34h25.07c.74 0 1.34-.6 1.34-1.34V24.8ZM24 25.6v14.43" fill="none" stroke="currentColor" stroke-width="1.1" stroke-linejoin="miter"></path><path d="M22 38.08c-2.98.15-7.73 2.47-8.85-1.9 0-2.02 2.74-2.16 2.74-2.16m6.11-.06c-2.54.26-7.29-1.09-7.26-2.53.01-1.09 1.52-1.39 2.84-1.55m4.42-.05c-2.17.24-6.08-1.16-6.1-2.53.06-1.14 3.18-1.05 3.18-1.05M26 38.08c2.98.15 7.73 2.47 8.85-1.9 0-2.02-2.75-2.16-2.75-2.16m-6.1-.06c2.54.26 7.29-1.09 7.26-2.53-.01-1.09-1.52-1.39-2.84-1.55M26 29.83c2.17.24 6.08-1.16 6.1-2.53-.06-1.14-3.18-1.05-3.18-1.05" fill="none" stroke="currentColor" stroke-width="1.1" stroke-linejoin="miter"></path><path d="M34.85 21.65a9.48 9.48 0 0 0-3.83-1.94s-2.35-1.67-4-1.8l-.47-3.06s.99-1.53 1.07-2.55c-.12 0 .92-.82 0-2.35 0 0 .82-4.02-3.62-4.41-4.44.4-3.62 4.41-3.62 4.41-1.03 1.42.1 2.3 0 2.35.08 1.02 1.07 2.55 1.07 2.55l-.48 3.05c-1.64.14-3.99 1.81-3.99 1.81a9.54 9.54 0 0 0-3.83 1.94" fill="none" stroke="currentColor" stroke-width="1.1"></path></svg>