<svg viewBox="0 0 48 48" xmlns="http://www.w3.org/2000/svg" fill-rule="evenodd" clip-rule="evenodd" stroke-linejoin="round" stroke-miterlimit="2" class="size-14 text-white"><path fill="none" d="M-68-632h1177v3080H-68z"></path><path d="M19.2 9.6h-3.672A3.529 3.529 0 0012 13.128v18.344A3.529 3.529 0 0015.528 35h16.944A3.529 3.529 0 0036 31.472V13.128A3.529 3.529 0 0032.472 9.6H28.8s-.242-4.8-4.8-4.8-4.8 4.8-4.8 4.8zm8.067 5.4h4.876" fill="none" stroke="currentColor" stroke-width="1.1" stroke-linejoin="miter" stroke-miterlimit="3"></path><path d="M12 18.566V30.92c0 2.253 1.791 4.08 4 4.08h16c2.209 0 4-1.827 4-4.08V17.783s-4.2 1.456-7 1.456c-4 0-8-2.239-11-2.239s-6 1.566-6 1.566zm15.41 11.802H32v-1.44h-4.59v1.44zm0-7.267H32v-1.44h-4.59v1.44z" fill="currentColor"></path><path d="M20.255 38.4h7.49H24v4.2s.006 2.8 3 2.8" fill="none" stroke="currentColor" stroke-width="1.1" stroke-linejoin="miter" stroke-miterlimit="3"></path><circle cx="24" cy="9.6" r="1" fill="currentColor"></circle></svg>