<svg clip-rule="evenodd" fill-rule="evenodd" stroke-linejoin="round" stroke-miterlimit="3" viewBox="0 0 48 48" xmlns="http://www.w3.org/2000/svg" class="size-12 mr-4 text-gray-600"><g fill="none"><path d="m-68-1176h1177v3080h-1177z"></path><g stroke="currentColor" stroke-width="1.6"><path d="m18.561 7.355c2.027.938 2.379 5.557 2.79 6.092s1.058 2.357 1.111 3.505l.253 7.294.081 3.101s-.152 1.561-.29 2.076c-.137.515.001 2.042-.092 2.272s-.199 1.061-.981 1.011c-.783-.05-1.563-.126-1.881-1.298-.318-1.173-.644-2.215-.707-3.685-.064-1.47-.056-2.585-.41-3.184-.355-.598-1.102-.236-1.494.022-.245.16-1.352.833-2.012 2.153-.66 1.319-1.731 3.738-2.357 5.74-.625 2.003-1.025 2.527-1.202 3.668-.178 1.141-.082 1.278-.314 1.63 0 0 .108 1.846-.235 2.295s-.678.768-1.097.768c-.419-.001-.77-.233-.77-.233l-.189-2.217s-.586-.666-.681-1.641-.629-2.03-.668-3.473c-.039-1.442-.147-.978.018-2.329.164-1.351.523-2.454.523-2.454s-.074-.895.125-1.956c.198-1.061.588-2.24.588-2.24l.974-4.18s.964-3.211 1.676-4.109c.712-.897-.246-3.943-.246-3.943l-2.188-4.355s7.597-1.29 9.675-.33z"></path><path d="m11.056 37.752s-.736 1.297-1.356 1.099-.802-.446-.752-1.234c.051-.788-.064-3.327-.064-3.327s.074-2.408.433-3.69.856-2.755.675-3.754c-.089-.488-.167-.921-.167-.921" stroke-linecap="round"></path><path d="m29.439 7.355c-2.027.938-2.379 5.557-2.79 6.092s-1.058 2.357-1.111 3.505l-.253 7.294-.081 3.101s.152 1.561.29 2.076c.137.515-.001 2.042.092 2.272s.199 1.061.981 1.011c.783-.05 1.563-.126 1.881-1.298.318-1.173.644-2.215.707-3.685.064-1.47.056-2.585.41-3.184.355-.598 1.102-.236 1.494.022.245.16 1.352.833 2.012 2.153.66 1.319 1.731 3.738 2.357 5.74.625 2.003 1.025 2.527 1.202 3.668.178 1.141.082 1.278.314 1.63 0 0-.108 1.846.235 2.295s.678.768 1.097.768c.419-.001.77-.233.77-.233l.189-2.217s.586-.666.681-1.641.629-2.03.668-3.473c.039-1.442.147-.978-.018-2.329-.164-1.351-.523-2.454-.523-2.454s.074-.895-.125-1.956c-.198-1.061-.588-2.24-.588-2.24l-.974-4.18s-.964-3.211-1.676-4.109c-.712-.897.246-3.943.246-3.943l2.188-4.355s-7.597-1.29-9.675-.33z"></path><path d="m36.944 37.752s.736 1.297 1.356 1.099.802-.446.752-1.234c-.051-.788.064-3.327.064-3.327s-.074-2.408-.433-3.69-.856-2.755-.675-3.754c.089-.488.167-.921.167-.921" stroke-linecap="round"></path></g></g></svg>