<svg viewBox="0 0 48 48" xmlns="http://www.w3.org/2000/svg" xml:space="preserve" fill-rule="evenodd" clip-rule="evenodd" stroke-miterlimit="10" class="size-14 text-white"><g fill="none" stroke="currentColor" stroke-width="1.1"><g stroke-miterlimit="4"><path d="M41.007 25.427s-2.15-.021-3.183-.264c-1.2-.282-4.017-1.432-4.017-1.432s-2.908 1.15-4.108 1.432c-1.003.237-3.092.264-3.092.264v6.648c.019 3.648 3.201 8.694 7.2 9.623 4.032-1.023 7.2-5.907 7.2-9.641v-6.63ZM29.307 32.394h9M33.807 27.894v9"></path></g><path d="M34.013 19.524V8.812H9.6V38.65h15.207"></path><path d="M14.813 8.812v3.171c0 .7.567 1.267 1.267 1.267h11.454c.699 0 1.266-.567 1.266-1.267V8.812H14.813ZM31.407 21.25H20.063h11.344ZM23.407 27.25h-3.344 3.344ZM23.407 33.25h-3.344 3.344ZM12.207 20.562l2.325 2.188 3.507-3.5"></path><circle cx="21.807" cy="6.812" r="2" stroke-miterlimit="4"></circle></g></svg>