<svg clip-rule="evenodd" fill-rule="evenodd" stroke-miterlimit="3" viewBox="0 0 48 48" xmlns="http://www.w3.org/2000/svg" class="size-14 text-white"><g fill="none"><path d="m-68-1992h1177v6283.79h-1177z"></path><g stroke="currentColor" stroke-width="1.1"><path d="m24.018 8.401c3.561-.028 10.513.348 13.178 8.086 3.124 9.073-4.517 12.639-4.895 15.06-.377 2.42.651 5.046 1.044 6.154.086.244-.529.585-.701.645-2.447.858-3.894 1.3-7.124 1.25-3.649-.057-5.435-.633-6.092-.97-.658-.337-.349-1.507-.507-2.254-.204-.961-.776-1.927-2.03-1.663-1.243.262-1.909.389-1.909.389s-2.407.267-2.565-2.474.262-3.253-.05-4.089c-.202-.541-.363-.828-1.15-1.13-.786-.301-1.733-.601-1.605-1.272.174-.922 2.135-3.665 2.653-4.256.517-.591.281-1.532.26-1.714-.548-4.764 1.814-6.987 3.963-8.947 1.997-1.822 4.5-2.791 7.53-2.815z"></path><path d="m29.014 12.944c-.641-.108-1.294-.108-1.934 0v1.53c-.47.108-.918.293-1.326.549l-1.082-1.082c-.529.376-.991.838-1.367 1.367l1.082 1.082c-.256.409-.442.857-.549 1.326h-1.531c-.108.64-.108 1.294 0 1.934h1.531c.107.469.293.917.549 1.326l-1.082 1.082c.376.529.838.991 1.367 1.367l1.082-1.082c.408.256.856.441 1.326.549v1.53c.64.108 1.293.108 1.934 0v-1.53c.469-.108.917-.293 1.325-.549l1.082 1.082c.529-.376.991-.838 1.368-1.367l-1.082-1.082c.255-.409.441-.857.549-1.326h1.53c.108-.64.108-1.294 0-1.934h-1.53c-.108-.469-.294-.917-.549-1.326l1.082-1.082c-.377-.529-.839-.991-1.368-1.367l-1.082 1.082c-.408-.256-.856-.441-1.325-.549zm-.967 4.994c.411 0 .744.334.744.745s-.333.745-.744.745-.745-.334-.745-.745.334-.745.745-.745z" stroke-miterlimit="1"></path><path d="m19.998 19.022c-.459-.167-.946-.241-1.434-.22l-.264.861c-.425.064-.831.222-1.187.462l-.777-.456c-.374.315-.682.699-.907 1.132l.613.66c-.157.4-.223.83-.193 1.259l-.783.445c.085.48.264.94.526 1.352l.878-.202c.268.336.607.608.994.797l-.007.9c.459.167.947.242 1.434.221l.265-.861c.425-.064.83-.222 1.187-.463l.776.456c.374-.314.683-.699.908-1.132l-.614-.659c.158-.4.224-.83.194-1.259l.783-.445c-.085-.481-.264-.94-.527-1.352l-.877.202c-.268-.337-.608-.609-.994-.797zm-1.157 2.76c.405.062.684.442.622.848s-.442.685-.848.622c-.406-.062-.685-.442-.622-.848.062-.405.442-.684.848-.622z" stroke-miterlimit="1"></path></g></g></svg>