<svg clip-rule="evenodd" fill-rule="evenodd" stroke-linejoin="round" stroke-miterlimit="2" viewBox="0 0 48 48" xmlns="http://www.w3.org/2000/svg" class="size-14 text-white"><g fill="none"><path d="m-68-836h1177v3080h-1177z"></path><g stroke="currentColor" stroke-width="1.1"><path d="m9.138 34.448c4.572-10.859 10.024-19.54 16.209-26.54 0 0 .464-.497 1.097-.728.643-.262 1.281-.161 1.281-.161l1.796.342.775-.029 4.343 1.023-.869 6.108-4.737-.405c-1.168-.598-2.449-.49-3.125.16-.843.718-1.142 2.321-1.142 2.321-2.016 8.174-6.256 14.538-11.436 20.309z"></path><path d="m29.71 7.357-1.058 6.567"></path><path d="m10.555 31.325 5.022 2.9"></path><path d="m8.148 37.129 3.158 1.823"></path><path d="m9.458 38.588c-1.378 1.806-.135 3.417.518 5.464"></path><path d="m37.665 8.915c1.337 2.147 1.06 4.05-.862 5.705"></path><path d="m39.935 7.674c2.058 3.312 1.615 6.246-1.33 8.802"></path></g></g></svg>