<svg clip-rule="evenodd" fill-rule="evenodd" stroke-miterlimit="10" viewBox="0 0 48 48" xmlns="http://www.w3.org/2000/svg" class="size-12 mr-4 text-gray-600"><g fill="none"><path d="m-68-1108h1177v3080h-1177z"></path><g stroke="currentColor" stroke-width="1.6"><path d="m17.201 21.721c-.553-1.389-.206-3.278-.36-5.263-.205-2.626-.664-4.987 0-8.452 2.876.724 10.724.906 13.677.015.097 1.309.14 1.988.023 3.237-.194 2.074-.559 9.373-.559 9.373-1.811.376-4.077.438-5.582 0-.059-1.188-.043-4.872-.808-4.94-.659.091-.942 5.73-.942 5.73-1.184.554-4.023.554-5.449.3z"></path><path d="m28.914 20.791c.031.67-.171 1.209-.264 1.626-.221.945-.201 2.012.117 2.762.425.998 1.528 1.276 1.973 2.325.34.801.308 1.454.555 2.399.115.441.306 1.255.394 1.685.155.749.353 1.393.502 2.144.142.721.372 1.589.66 2.275.181.433.586.944.651 1.414.053.388.009.837.009 1.229.001 1.34.339 2.147-.307 3.058-.669.943-1.579 1.405-3.157 1.109-.248-.046-.214-.391-.171-.746.093-.748.583-1.593.699-2.1.121-.523-.343-1.522-.4-1.92-.138-.969.066-1.819-.096-2.784-.15-.895-.81-1.559-1.152-2.325-.492-1.103-.692-1.674-1.215-2.676-.298-.571-.787-1.371-1.141-1.888-.379-.551-.922-1.419-1.207-2.059-.173-.388-.151-.528-.276-.991-.135-.503-.416-1.161-.544-1.674-.224-.903-.035-2.318-.003-3.133m-2.137.854c.164 1.254-.191 3.305-.44 4.184-.278 1.089-1.015 1.819-1.542 2.642-.27.422-.61 1.255-1.079 2.28-.415.906-1.137 2.226-1.93 3.885-.747 1.564-.154 4.946-.019 5.167.346.565.436 1.335.533 2.026.056.402.18.903-.22 1.101-1.226.352-3.515-.545-3.45-1.395.09-1.165.043-2.583-.065-3.303-.094-.633.538-1.466.799-3.155.421-2.172.212-4.117.911-6.091.375-1.062 1.838-2.361 2.172-3.304.394-1.115.132-2.371-.074-3.449"></path><path d="m16.809 8.191.532-3.097"></path><path d="m30.519 8.145-.186-2.984"></path><path d="m20.715 9.885s-1.389 3.017-3.747 2.63"></path><path d="m26.824 9.881s1.389 3.017 3.747 2.63"></path></g></g></svg>