<svg viewBox="0 0 48 49" xmlns="http://www.w3.org/2000/svg" xml:space="preserve" fill-rule="evenodd" clip-rule="evenodd" stroke-linejoin="round" stroke-miterlimit="1" class="size-14 text-white"><path fill="none" d="M0 .1h48v48H0z"></path><g fill="none" stroke="currentColor"><g stroke-width="1.1"><path d="M27.3 16.25 24.26 29.3c-.15.77.63 1.51 1.3 1.7.74.17 1.36-.29 1.7-.64 1.18.82 2.61-.39 2.66-1.32 1.5-.13 2.13-1.14 2.13-2.5"></path><path d="M30.8 26.7c2.42.03 3.4-1.77 2.32-3.84 1.18-2.42-.32-4.08-2.78-3.7"></path><path d="M30.18 16.5c1.9.36 2.66 1.34 2.27 2.96"></path><path d="M23.25 14.97c1.45-1.7 3.93-1.24 4.05 1.29 1.07-2.14 3.72-1.78 4.18.64"></path><path d="M24.64 15.2c-1.59-.57-2.74.05-3.37 1.61"></path><path d="M23.25 17.48c-1.98-1.46-4.26-.4-4.04 2.17-1.97 1.1-1.9 3.56.35 4.47"></path><path d="M18.47 23.37c-.79 1.1-.52 2.51.83 3.12-.22 1.33.63 2.2 1.78 2.36.4 1.41 2.67 2.06 3.2.33.39-1.24-1.21-2.19-1.21-2.19M24.84 20.31c-2.26.67-3.58.09-3.71-2.05"></path><path d="M19.4 22.26c.58-1.25 1.67-1.85 3.34-1.73M19.45 25.07c1.44.02 2.03.71 1.76 2.06"></path><path d="M23.62 23.48c-1.35.07-2.23.78-2.59 2.2M27.72 21.07c1.46 1.54 2.87 1.48 4.23-.25"></path><path d="M31.73 25.13a3.03 3.03 0 0 0-2.07-2.96M27.88 28.68c.43-1.34 1.28-1.7 2.54-1.09"></path><path d="M27.47 24.3c1.09.69 1.54 1.72 1.35 3.1M25.3 17.5a2.33 2.33 0 0 1 1.21 2.19M28.8 17.41c-.94 0-1.68.51-2.15 1.64"></path></g><path d="m16.66 9 .88-3.81 23.38 5.44-6.8 29.22-2.76-.65M31.36 39.2l-20.62-4.8L16.66 9" stroke-width="1.1"></path><path d="M33.42 39.74c-2.15.08-2.96 2.03-2.95 3.28L7.09 37.57l6.8-29.21c.38-1.42 1-3.21 3.77-3.17" stroke-width="1.1"></path><path d="M7.08 37.6c.3-1.57.7-3.3 3.67-3.26" stroke-width="1.1"></path><path d="m12.02 36.76 18.87 4.37"></path></g></svg>