<svg viewBox="0 0 48 48" xmlns="http://www.w3.org/2000/svg" xml:space="preserve" fill-rule="evenodd" clip-rule="evenodd" stroke-linejoin="round" stroke-miterlimit="2" class="size-14 text-white"><path fill="none" d="M-136-6004h1177v7213.35H-136z"></path><g fill="none" stroke="currentColor" stroke-width="1.1" stroke-linejoin="miter" stroke-miterlimit="3"><path d="M24.014 14.862c4.407-2.085 12.101 1.5 12.837 7.231.792 6.169-5.686 9.971-10.517 11.561-1.978.651-1.77-3.102-2.333-3.091-.547.011-.328 3.742-2.306 3.091-4.831-1.59-11.31-5.392-10.517-11.561.736-5.731 8.43-9.316 12.836-7.231Z"></path><path d="M24.014 27.016c-1.793 0-1.086.532-3.255 1.424-2.168.891-4.585-.881-3.387-3.148 1.197-2.267-.096-5.077-.096-5.077s.724-2.523-1.392-4.041c2.542-1.039 4.31 2.12 4.626 2.992.75 2.066 2.202 4.149 3.504 4.134 1.303.015 2.754-2.068 3.504-4.134.317-.872 2.085-4.031 4.626-2.992-2.115 1.518-1.391 4.041-1.391 4.041s-1.294 2.81-.096 5.077-1.219 4.039-3.388 3.148c-2.168-.892-1.461-1.424-3.255-1.424ZM15.458 15.966s-1.978-.761-4.033 0c-1.581.586-2.44 1.913-2.779 4.122-.339 2.21-1.558 3.878-3.003 3.909-1.445.03 0 0 0 0s2.179.369 2.678 1.926c.499 1.558.118 3.956 2.324 4.737 1.268.449 2.21-.005 4.08-.757M32.542 15.966s1.978-.761 4.033 0c1.581.586 2.44 1.913 2.779 4.122.339 2.21 1.558 3.878 3.003 3.909 1.445.03 0 0 0 0s-2.179.369-2.678 1.926c-.499 1.558-.118 3.956-2.324 4.737-1.268.449-2.21-.005-4.08-.757"></path></g></svg>