<svg clip-rule="evenodd" fill-rule="evenodd" stroke-miterlimit="10" viewBox="0 0 48 48" xmlns="http://www.w3.org/2000/svg" class="size-14 text-white"><g fill="none"><path d="m-68-360h1177v3080h-1177z"></path><g stroke="currentColor" stroke-width="1.1"><path d="m15.668 25.995s-5.625 1.211-8.393-2.937c-2.767-4.149 1.259-8.393 1.259-8.393"></path><path d="m11.891 22.218s-.776-1.937.84-2.937c0 0-4.458-.287-4.197-4.616s4.616-3.777 4.616-3.777.52-2.918 4.197-2.098c0 0 2.552-3.886 7.133-1.259 0 0 2.181-2.161 5.036.42"></path><path d="m27.418 11.308s.283-2.698 2.098-3.357 3.659-.349 5.035 1.678c0 0 4.699-.107 5.036 4.79 0 0 4.096 1.889 1.678 6.121 0 0 2.608 3.663-2.517 6.294"></path><path d="m34.132 20.959s4.944 1.776 4.616 5.875c-.329 4.099-2.832 6.654-7.134 6.295 0 0 .28 4.616 0 6.294-.226 1.359-.818 3.803-1.679 3.777-.699-.021-1.348-3.704-1.678-6.295-.248-1.949-1.844-5.875-5.455-6.714 0 0-5.855.524-7.134-4.196 0 0-.496-3.395 2.518-4.196"></path><path d="m19.445 19.281s3.089 1.494 1.259 5.035"></path><path d="m25.32 26.415s4.044 4.323 8.392-.42"></path><path d="m21.963 16.343s.979 4.437 4.615 4.616c3.637.18 5.192-2.246 5.875-3.776"></path><path d="m17.766 11.308s.572 3.256 2.938 2.937"></path><path d="m22.802 12.147s4.229-.426 4.196 4.196"></path><path d="m31.614 12.788s2.381-.107 2.937 1.877c0 0 2.601 1.046 2.099 4.196"></path><path d="m18.605 12.986s-1.741 3.843-6.294 2.099"></path><path d="m24.9 20.54s2.903 1.27 2.098 4.616"></path></g></g></svg>