<svg viewBox="0 0 48 48" xmlns="http://www.w3.org/2000/svg" fill-rule="evenodd" clip-rule="evenodd" stroke-miterlimit="10" class="size-14 text-white"><path fill="none" d="M-68-496h1177v3080H-68z"></path><path d="M29.334 8.053c1.81-.658 3.649-.349 5.021 1.673 0 0 4.684-.107 5.021 4.776 0 0 4.084 1.884 1.674 6.103 0 0 2.599 3.653-2.511 6.276-.328 4.087-2.824 6.635-7.113 6.277 0 0 .279 4.602 0 6.276-.226 1.355-.815 3.792-1.674 3.766-.697-.021-1.345-3.694-1.673-6.276-.248-1.944-1.839-5.859-5.44-6.695 0 0-5.838.522-7.113-4.184 0 0-5.609 1.207-8.368-2.929-2.76-4.137 1.255-8.369 1.255-8.369.26-4.316 4.602-3.766 4.602-3.766s.518-2.909 4.185-2.092c0 0 2.544-3.874 7.113-1.255 0 0 2.617-1.785 5.021.419z" fill="none" stroke="currentColor" stroke-width="1.1"></path><circle cx="18.189" cy="14.24" r="2.725" fill="currentColor"></circle><path d="M26.885 10.278a2.726 2.726 0 00-2.725 2.725 2.726 2.726 0 002.725 2.725 2.726 2.726 0 002.725-2.725 2.726 2.726 0 00-2.725-2.725zm0 1.5a1.226 1.226 0 11-.001 2.451 1.226 1.226 0 01.001-2.451z" fill="currentColor"></path><path d="M12.659 20.11l5.533-5.87 8.69-1.237 8.686 5.527-3.947 7.903-8.689-3.953-10.273-2.37z" fill="none" stroke="currentColor" stroke-width="1.1" stroke-linejoin="round" stroke-miterlimit="3"></path><path d="M18.189 13.79l4.743 8.687 3.95-9.474 4.736 13.43-.174 6.714" fill="none" stroke="currentColor" stroke-width="1.1" stroke-linejoin="round" stroke-miterlimit="3"></path><circle cx="35.568" cy="18.527" r="2.725" fill="currentColor"></circle><circle cx="22.935" cy="22.477" r="2.725" fill="currentColor"></circle><circle cx="31.618" cy="26.433" r="2.725" fill="currentColor"></circle><circle cx="12.659" cy="20.107" r="2.725" fill="currentColor"></circle><path d="M31.621 26.433l7.11.352-3.16-8.255-1.58-9.072L26.882 13l-9.48-3.95.787 5.53H8.712l3.95 5.53 3.16 5.889 7.113-3.519v7.499l8.686-3.546zM12.659 20.11l-5.526 3.161m28.438-4.741l6.24-1.58m-14.926-4.286V6.725" fill="none" stroke="currentColor" stroke-width="1.1" stroke-linejoin="round" stroke-miterlimit="3"></path></svg>