<svg clip-rule="evenodd" fill-rule="evenodd" stroke-miterlimit="3" viewBox="0 0 48 48" xmlns="http://www.w3.org/2000/svg" class="size-14 text-white"><g fill="none"><path d="m-68-20h1177v3080h-1177z"></path><g stroke="currentColor" stroke-width="1.1"><path d="m13.857 32.607c.468-1.171 1.016-2.186 1.172-3.436.156-1.327.312-2.655.391-3.904.078-1.015.312-2.265.781-3.124.781-1.249 2.266-1.249 3.516-1.562 1.016-.312 2.188-.702 2.188-1.952 0-.546-.156-1.093-.39-1.562-.078-.234-.157-.546-.235-.702-.156-.235-.312-.313-.39-.547-.157-.312-.547-1.093-.391-1.562.078-.156.156-.156.234-.234.157-.234 0 .156.157-.156.078-.157 0-.469 0-.703 0-1.172.39-2.499 1.484-3.124 1.173-.625 2.735-.39 3.439.703.39.625.547 1.328.547 2.03 0 .235-.078.703.078.937.078.157.234.079.391.313.156.39 0 1.171-.157 1.484-.312.546-.39 1.015-.547 1.718-.156.78-.469 1.952.235 2.577.937.859 2.422.859 3.594 1.249 1.329.39 1.876 1.249 2.188 2.577.704 2.733.235 5.701 1.563 8.199 1.172 2.265 1.329 4.998 1.719 7.497 5.158-4.061 7.815-10.698 7.033-17.18-.703-5.7-4.141-10.854-9.064-13.822-5.08-2.967-11.488-3.358-16.879-1.015-5.236 2.343-9.221 7.028-10.55 12.573-1.797 7.106.86 14.837 6.564 19.366 0-.078.625-4.529 1.329-6.638z"></path><path d="m32.377 37.761c-.352-.807-.938-2.186-1.485-3.201-.547-1.016-.703-2.109-1.016-3.28-.078-.234-.312-1.406-.703-1.328-.235.078-.313 1.25-.391 1.484-.625 3.592 1.172 7.106 1.172 10.698.547-.234 1.094-.468 1.641-.702.469-.235 1.173-.469 1.563-.859.313-.235.235-.235.078-.547-.078-.234-.156-.39-.234-.625-.234-.468-.391-1.103-.625-1.64z"></path><path d="m18.155 31.358c-.46 1.492-.257 1.541-.86 2.967-.936 2.212-1.049 2.139-1.954 4.373-.247.611-1.02 1.348-.625 1.875.113.15.307.217.469.312.888.522 1.949 1.014 2.891 1.328 0-2.988 1.217-5.776 1.256-8.86.009-.771-.09-1.54-.162-2.307-.001-.011-.083-.818-.241-.967-.332-.313-.547.527-.56.557-.095.232-.135.484-.214.722z"></path></g></g></svg>