<svg clip-rule="evenodd" fill-rule="evenodd" stroke-miterlimit="10" viewBox="0 0 48 48" xmlns="http://www.w3.org/2000/svg" class="size-14 text-white"><g fill="none"><path d="m-68-1856h1177v3080h-1177z"></path><g stroke="currentColor" stroke-width="1.1"><path d="m37.073 32.724s-1.865-1.718-2.781-2.586c-.998-.947-2.12-2.662-2.555-3.714-.945-2.283-3.5-5.782-4.639-7.737-.766-1.314-1.511-3.301-2.198-3.996-.455-.459-1.559-.111-1.93-.175"></path><path d="m23.9 16.457s-.897-1.587-1.325-2.223c-.376-.558-1.245-1.591-1.245-1.591s-.758-.93-1.451-.478c-.748.488-.799 1.229-.799 1.229"></path><path d="m20.159 15.012-1.079-1.618s-1.414-2.207-2.555-3.153c-.812-.672-1.229-1.59-1.849-2.219-.473-.48-1.11-1.304-1.873-.698-.665.528.002 1.733.002 1.733"></path><path d="m17.518 17.125c-.151-.251-2.039-3.162-2.531-4.462s-2.216-3.679-2.216-3.679-.846-.7-1.514-.274c-.69.439-.114 1.743.092 2.577.252 1.018.924 2.361 1.417 3.528.617 1.463 2.22 4.288 2.284 5.247.063.959.307 1.746.307 1.746"></path><path d="m16.249 24.865c.018-1.208-.947-3.181-.947-3.181s-.907-1.525-1.286-1.963c-.334-.386-1.047-1.024-1.64-.687-.545.309-.442 1.073-.236 1.685.205.612.953 2.098 1.442 3.58.512 1.55 2.625 4.295 3.241 4.884 1.1 1.053 2.396 2.657 4.338 3.764 1.941 1.107 4.043 2.441 4.744 3.151.993 1.003 4.016 4.252 4.269 4.792"></path><path d="m11.246 11.163c.508.089 1.573-.571 1.991-1.382"></path><path d="m13.229 9.737c.409.136 1.493-.732 1.567-1.428"></path><path d="m12.773 18.921s.713 1.377.565 2.069c-.147.692-.534.948-.622 1.026"></path></g></g></svg>