<svg clip-rule="evenodd" fill-rule="evenodd" stroke-linejoin="round" stroke-miterlimit="2" viewBox="0 0 48 48" xmlns="http://www.w3.org/2000/svg" class="size-14 text-white"><g fill="none"><path d="m-68-428h1177v3080h-1177z"></path><g stroke="currentColor" stroke-linejoin="miter" stroke-miterlimit="3" stroke-width="1.1"><path d="m34.448 12.104c1.052-1.02 2.934-1.687 4.734-1.187 1.583.441 3.969 3.186 4.111 4.819.133 1.542-.3 2.895-1.203 3.699-.903.803-.841 1.345-.74 1.668.1.322-.379.617-1.119.958-.74.34-.69 1.489-1.618 1.619-.927.129-4.537-2.889-5.231-4.819-.694-1.929-.141-5.587 1.066-6.757z"></path><path d="m33.263 18.556c-3.304 2.768-7.635 4.407-10.228 4.741s-4.886.793-5.972 1.447-3.884 2.732-3.308 5.784c.549 2.905 2.267 2.775 3.884 2.816 1.617.042 3.706-.073 4.074.25.369.324 1.574 1.826 1.574 1.826"></path><path d="m29.971 22.843s-2.137 4.874-2.363 6.642c-.225 1.769-.689 6.384-.032 7.295 1.21.173 5.118.743 5.279.059.2-.851-2.891-1.738-2.891-1.738s1.099-4.132.834-4.935c0 0 3.146-4.01 3.686-5.7.452-1.415.704-2.645-.446-4.435"></path><path d="m13.889 31.454c-2.322.844-4.811 1.009-5.233.745-.249-.156-1.731-.847-2.49-.45s-.889 1.617-.918 1.855c-.029.237-.647 1.512-1.349 1.908-.701.396-.95 1.149-.113 1.024 2.581-.387 3.966-1.405 5.582-1.773 1.44-.328 2.015.672 2.015.672"></path><path d="m38.66 24.073s1.059 3.319 1.192 5.03c.865 1.759 1.466 5.852 2.356 5.991s2.62.883 2.531 1.467c-.081.523-4.247.148-4.759.111-.602-.044-3.629-6.489-4.056-9.719 0 0-1.875 1.255-4.196 2.014"></path><path d="m22.907 23.163s1.446 3.728 1.869 6.464"></path><path d="m16.696 33.351s.122-5.316 5.322-4.992c2.838.177 5.415 3.191 5.215 6.834-.06 1.099-.789 2-2.658 2.057-1.868.057-8.186-.855-9.024-.87-.744-.013-4.114.863-4.793.415-.501-.331-.482-.967.614-1.21 1.095-.243 3.267-2.822 3.267-2.822"></path></g></g></svg>