<svg width="100%" height="100%" viewBox="0 0 48 48" version="1.1" xmlns="http://www.w3.org/2000/svg" xmlns:xlink="http://www.w3.org/1999/xlink" xml:space="preserve" xmlns:serif="http://www.serif.com/" class="size-14 text-white" style="fill-rule: evenodd; clip-rule: evenodd; stroke-linejoin: round; stroke-miterlimit: 2;"><rect id="App-Icons" serif:id="App Icons" x="-68" y="-3352" width="1177" height="3759" style="fill: none;"></rect><g><g><path d="M15.564,17.501l-5.341,5.34c-2.456,2.457 -2.456,6.446 0,8.903l0.007,0.007c2.457,2.456 6.446,2.456 8.903,-0l5.341,-5.341" style="fill: none; stroke: currentcolor; stroke-width: 1.5px; stroke-linejoin: miter; stroke-miterlimit: 3;"></path><path d="M24.441,27.503l5.871,-5.871c2.75,-2.749 2.75,-7.214 0,-9.963l-0.007,-0.007c-2.749,-2.749 -7.214,-2.749 -9.963,0c-0,0 -5.871,5.871 -5.871,5.871l9.97,9.97Zm-1.835,-12.687c1.255,-1.255 3.293,-1.255 4.548,-0l0.004,0.004l1.061,-1.061l-0.004,-0.004c-1.841,-1.84 -4.829,-1.84 -6.669,0l1.06,1.061Z" style="fill: currentcolor;"></path></g><g><path d="M32.929,27.59c3.098,-0.546 6.057,1.525 6.604,4.623c0.546,3.099 -1.526,6.057 -4.624,6.604c-3.098,0.546 -6.057,-1.526 -6.603,-4.624c-0.547,-3.098 1.525,-6.057 4.623,-6.603Z" style="fill: none; stroke: currentcolor; stroke-width: 1.5px; stroke-linejoin: miter; stroke-miterlimit: 3;"></path><path d="M28.306,34.193l11.227,-1.98" style="fill: none; stroke: currentcolor; stroke-width: 1.5px; stroke-linejoin: miter; stroke-miterlimit: 3;"></path></g></g></svg>