<svg clip-rule="evenodd" fill-rule="evenodd" stroke-linejoin="round" stroke-miterlimit="2" viewBox="0 0 48 48" xmlns="http://www.w3.org/2000/svg" class="size-14 text-white"><g fill="none"><path d="m-68-700h1177v6283.79h-1177z"></path><path d="m39.471 13.892s-2.136 7.377-5.4 13.103c-2.104 3.691-5.645 6.735-6.152 6.55-.506-.184-1.26-4.804-.5-8.972 1.183-6.489 4.291-13.507 4.291-13.507" stroke="currentColor" stroke-linejoin="miter" stroke-miterlimit="3" stroke-width="1.1"></path><path d="m29.646 9.835c3.646 2.606 7.71 4.088 12.196 4.441" stroke="currentColor" stroke-linejoin="miter" stroke-miterlimit="3" stroke-width="1.1"></path><path d="m28.209 21.093 7.499 2.731" stroke="currentColor" stroke-linejoin="miter" stroke-miterlimit="3" stroke-width="1.1"></path><path d="m27.919 33.545-2.827 7.761" stroke="currentColor" stroke-linejoin="miter" stroke-miterlimit="3" stroke-width="1.1"></path></g><path d="m25.468 40.282c-1.125-.409-2.371.171-2.781 1.296-.099.272-.062.561.12.843.246.38.846.776 1.511 1.018s1.38.325 1.812.192c.321-.099.535-.296.634-.568.409-1.125-.171-2.371-1.296-2.781z" fill="currentColor"></path><path d="m16.491 6.973s2.606 7.224 3.33 13.775c.467 4.223-.61 8.766-1.129 8.915-.518.148-3.842-3.147-5.677-6.966-2.856-5.945-4.464-13.45-4.464-13.45" fill="none" stroke="currentColor" stroke-linejoin="miter" stroke-miterlimit="3" stroke-width="1.1"></path><path d="m6.158 9.463c4.48-.034 8.64-1.222 12.478-3.573" fill="none" stroke="currentColor" stroke-linejoin="miter" stroke-miterlimit="3" stroke-width="1.1"></path><path d="m11.61 19.417 7.672-2.197" fill="none" stroke="currentColor" stroke-linejoin="miter" stroke-miterlimit="3" stroke-width="1.1"></path><path d="m18.692 29.663 2.273 7.94" fill="none" stroke="currentColor" stroke-linejoin="miter" stroke-miterlimit="3" stroke-width="1.1"></path><path d="m20.668 36.555c-1.151.329-1.818 1.531-1.489 2.682.08.278.28.491.593.612.422.163 1.14.131 1.82-.064s1.308-.548 1.579-.91c.201-.268.259-.554.179-.832-.33-1.151-1.532-1.818-2.682-1.488z" fill="currentColor"></path></svg>