<svg viewBox="0 0 48 48" xmlns="http://www.w3.org/2000/svg" xml:space="preserve" fill-rule="evenodd" clip-rule="evenodd" stroke-linejoin="round" stroke-miterlimit="2" class="size-14 text-white"><path d="M-68-6208h1177v7213.35H-68z" fill="none"></path><path d="M12.48 38.5a40.11 40.11 0 0 0 1.04-8.74c-.1-4-.93-8.16-.56-10.27.3-1.66.99-3.46 3.54-3.61 2.56-.16 3.24-.44 3.24-.44s1.66-.3 1.99-1.85c.33-1.54.52-3.24.52-3.24m4.72 0s-.18 2.14 0 3.14c.22 1.2 1.09 2.6 3.38 3.57 2.38 1.02 3.32 3.38 3.32 4.28.08 1.52-.43 6.33-.08 9.7a43.57 43.57 0 0 0 1.8 7.86" fill="none" stroke="currentColor" stroke-width="1.1" stroke-linejoin="miter"></path><path d="M30.97 22.43c-.32 2.82-1.94 5.14-1.78 7.39.22 3.12 3.58 7.64 3.4 11.94M15.67 20.7c-.1 3.33 1.59 6.59 1.63 9.81.05 3.42-1.64 7.5-1.32 11.2M20 5.98c-.21 2.71.24 4.93 2.03 6.38m7.14-6.17c.07 2.7-.23 5.08-2.2 6.37" fill="none" stroke="currentColor" stroke-width="1.1" stroke-linejoin="miter"></path><path d="M24.45 10.4s.06 4.83-.17 7.23c-.3 3.06-1.75 7.4-1.66 11.16.1 3.98 2.22 12.7 2.22 12.7M18.45 18.8l10.95 2.07M18.28 37.15l10.45-2.54" fill="none" stroke="currentColor" stroke-linejoin="miter" stroke-dasharray="3,1,0,0"></path></svg>