<svg clip-rule="evenodd" fill-rule="evenodd" stroke-linejoin="round" stroke-miterlimit="2" viewBox="0 0 48 48" xmlns="http://www.w3.org/2000/svg" class="size-14 text-white"><g fill="none"><path d="m-68-4848h1177v6283.79h-1177z"></path><g stroke="currentColor" stroke-linejoin="miter" stroke-miterlimit="4" stroke-width="1.1"><path d="m22.038 15.482c-.137 1.088-.942 2.208-1.739 2.999-1.248 1.239-4.769 1.88-5.822 3.958-1.346 2.656-.939 9.683-.939 9.683"></path><path d="m25.885 41.348c1.006.211 1.902.301 2.562.403 1.101.17 1.802-.211 2.072-.764.271-.553.131-1.417-.385-2.046-1.141-1.39-3.166-2.166-3.166-2.166"></path><path d="m26.086 15.2s1.116 2.168 2.097 3c1.698 1.517 6.437 3.86 6.606 8.819-.008 1.982-.962 16.181-.962 16.181"></path><path d="m19.022 24.878-.3 3.841"></path><path d="m29.232 19.2s-6.46 8.345-15.697 12.806c-.123.533-.417 3.052-.296 4.23.339 3.295 12.156 6.031 12.745 5.144 0 0 .769-9.854 6.11-19.915z"></path><path d="m23.989 31.2c1.308-3.073 3.046-5.748 5.243-8"></path><path d="m21.892 29.2c-1.311 1.959-3.048 3.634-5.243 5"></path><path d="m14.15 37.55.258 5.608"></path><path d="m23.989 5.2c2.315 0 4.194 2.24 4.194 5 0 2.759-1.879 6-4.194 6s-4.194-3.241-4.194-6c0-2.76 1.879-5 4.194-5z"></path></g></g></svg>