<svg viewBox="0 0 48 48" xmlns="http://www.w3.org/2000/svg" fill-rule="evenodd" clip-rule="evenodd" stroke-linecap="round" stroke-linejoin="round" class="size-12 mr-4 text-gray-600"><path fill="none" d="M-68-564h1177v3080H-68z"></path><path d="M23.366 6.675c.032-.008 3.216-.787 5.455.835 1.357.983 2.129 2.683 2.293 5.052.431 6.217-.86 14.25-4.715 18.179-1.68 1.711-4.276 2.397-6.663 2.397-2.386 0-4.982-.686-6.662-2.397-3.855-3.929-5.146-11.962-4.715-18.179.164-2.369.936-4.069 2.293-5.052 2.239-1.622 5.423-.843 5.455-.835m25.704 28.086a4.476 4.476 0 11-8.952 0 4.476 4.476 0 018.952 0zM19.736 33.138c-.376.471.438 9.766 7.096 10.059 4.68.149 7.284-4.782 7.169-5.143" fill="none" stroke="currentColor" stroke-width="1.6"></path><circle cx="37.335" cy="34.761" r="2.2" fill="currentColor"></circle></svg>