<svg clip-rule="evenodd" fill-rule="evenodd" stroke-linejoin="round" stroke-miterlimit="2" viewBox="0 0 48 48" xmlns="http://www.w3.org/2000/svg" class="size-14 text-white"><g fill="none"><path d="m-68-768h1177v3080h-1177z"></path><g stroke="currentColor" stroke-width="1.1"><path d="m28.638 20.458c-1.122.122-6.84-7.254-7.857-9.382-.629-.569-1.308 2.191-.838 3.759.285.952 4.053 4.924 3.354 6.305-.124.245-.441.466-.879.662" stroke-linejoin="miter" stroke-miterlimit="4"></path><path d="m18.242 22.816c-1.377.207-2.493.305-2.493.305l-10.064 1.074s-1.109.28-1.181 1.139c-.05.608.403 1.105 1.181 1.116 3.105.045 10.064-.278 10.064-.278" stroke-linejoin="miter" stroke-miterlimit="4"></path><path d="m5.613 26.455s-3.247-.151-3.213 1.072c-.01 1.043 1 1.149 1.99 1.162.99.012 11.769.378 11.769.378" stroke-linejoin="miter" stroke-miterlimit="4"></path><path d="m5.731 28.734c-1.402-.052-1.878 1.392-.885 2.132.927.691 12.225 1.042 12.98.85" stroke-linejoin="miter" stroke-miterlimit="4"></path><path d="m10.146 31.562c-1.235.034-1.629 1.979.244 2.159 1.874.179 7.875.442 7.875.442" stroke-linejoin="miter" stroke-miterlimit="4"></path><path d="m18.265 22.291 3.765-.778s1.783 2.176 3.593 1.875c2.249-.374 3.015-3.251 3.015-3.251s1.866 1.466 4.724 2.154c2.617.63 4.853.272 6.709.527.784.107 1.338.376 1.678 1.677.023.091.044.19.064.298.256 1.444.116 4.333-.404 5.573-.512 1.221-1.789 2.11-3.269 2.516-2.548.699-9.512 1.834-9.512 1.834s-3.413.533-7.008.682c-1.681.067-3.355-.839-3.355-.839z" stroke-linejoin="miter" stroke-miterlimit="4"></path><path d="m41.56 24.076c.041-.03 2.002-.359 3.732-.839" stroke-linejoin="miter" stroke-miterlimit="4"></path><path d="m40.372 31.722c1.592.098 3.502.215 5.228.321" stroke-linejoin="miter" stroke-miterlimit="4"></path><circle cx="22.115" cy="26.136" r="1.258"></circle><circle cx="38.052" cy="27.394" r="1.258"></circle><circle cx="27.568" cy="28.233" r="1.258"></circle><circle cx="22.117" cy="31.509" r="1.258"></circle><circle cx="32.6" cy="30.749" r="1.258"></circle><circle cx="32.6" cy="25.717" r="1.258"></circle></g></g></svg>