<svg clip-rule="evenodd" fill-rule="evenodd" stroke-miterlimit="10" viewBox="0 0 48 48" xmlns="http://www.w3.org/2000/svg" class="size-14 text-white"><g fill="none"><path d="m-68-2536h1177v3080h-1177z"></path><g stroke="currentColor" stroke-width="1.1"><path d="m25.287 21.522c.109-.219 6.957 3.353 9.756 8.129 0 0 .624 1.652-.209 3.405-.793 1.668-2.077 4.067-2.589 5.228-.292.66-.463 1.753.784 2.016 1.248.262 1.852.283 2.156.537.383.321.31 1.105-.197 1.149-1.027.09-4.797.228-5.94-.051-.434-.107-.82-.497.093-1.897.896-1.374 1.114-2.281 1.114-2.281s.741-4.836 1.849-6.18c-.519-.379-6.407-3.569-7.766-5.664-1.181-1.819.949-4.391.949-4.391z"></path><path d="m25.291 21.532c.344-.645.959-1.113 1.98-2.921.637-1.126 1.218-2.614 1.967-3.781.894-1.391 1.889-2.757 2.733-3.317 0 0-1.014-2.536-.335-4.1.619-1.426 1.888-1.506 2.744-1.566.856-.059 1.974.566 2.391 1.21.418.645.253 1.873.113 2.657-.133.742-.583 1.646-.954 2.048-.3.325-.961.168-1.275.366-.288.181-.61.82-.61.82"></path><path d="m32.515 26.535s-.896-5.948-.81-7.283-.048-2.401-.245-3.352c-.239-1.152-.181-3.412.951-3.717 1.894-.509 1.97 2.177 1.749 3.593-.238 1.526-.121 5.465-.121 5.465l.014 6.827"></path><path d="m29.966 24.079c.482-.945 1.101-1.93 1.76-2.802"></path><path d="m31.071 25.183c-.729 1.551-1.618 2.925-2.704 4.08"></path><path d="m25.789 42.157v-7.554c0-.811-.323-1.588-.896-2.162-.573-.573-1.351-.895-2.162-.895h-10.051"></path><path d="m15.755 24.061v-13.876"></path><path d="m20.567 14.98-4.812-4.812-4.792 4.793"></path></g></g></svg>