<svg clip-rule="evenodd" fill-rule="evenodd" stroke-miterlimit="5" viewBox="0 0 48 48" xmlns="http://www.w3.org/2000/svg" class="size-12 mr-4 text-gray-600"><g fill="none"><path d="M-68-1244h1177v3080H-68z"></path><g stroke="currentColor" stroke-width="1.6"><path d="M29.554 21.224L7.706 35.687a1.726 1.726 0 00-.537 2.271l.059.101a1.723 1.723 0 002.235.671l21.286-10.626.62 9.77a.547.547 0 00.081.245.964.964 0 001.814.049.683.683 0 00.103-.294s.816-10.261.929-12.748c.033-.728-.015-1.482-.249-2.173-.842-2.484-4.801-12.735-4.801-12.735a.558.558 0 00-.15-.211.965.965 0 00-1.748.501.657.657 0 00-.009.295z"></path><path d="M37.983 22.971a2.565 2.565 0 10.001-5.129 2.565 2.565 0 00-.001 5.129z" stroke-miterlimit="10"></path><path d="M7.602 37.814l14.327-8.36" stroke-linecap="round" stroke-miterlimit="10"></path></g></g></svg>