<svg viewBox="0 0 48 48" xmlns="http://www.w3.org/2000/svg" fill-rule="evenodd" clip-rule="evenodd" stroke-linejoin="round" stroke-miterlimit="2" class="size-14 text-white"><path fill="none" d="M-68-4304h1177v5753.79H-68z"></path><g fill="none" stroke="currentColor" stroke-linejoin="miter" stroke-miterlimit="3"><path d="M16.409 29.006L35.993 9.421s1.781-1.441 3.406.158c1.502 1.477.087 3.213.087 3.213L21.168 30.941l-4.8-.396.041-1.539z" stroke-width="1.1"></path><path d="M15.117 33.86l-2.723 2.444"></path><path d="M30.211 15.363l2.313 4.52M32.524 12.939l2.258 4.684M34.782 10.763l2.326 4.518M16.368 30.285L7.302 38.4s3.141.281 4.658-.034c1.625-.338 3.073-1.396 4.169-2.887.429-.697 1.135-1.92 1.656-2.84.695-1.171 1.744-1.698 1.744-1.698" stroke-width="1.1"></path></g></svg>